<?xml version="1.0" encoding="UTF-8" standalone="no"?>
<!DOCTYPE svg PUBLIC "-//W3C//DTD SVG 1.1//EN" "http://www.w3.org/Graphics/SVG/1.1/DTD/svg11.dtd">
<svg width="100%" height="100%" viewBox="0 0 730 730" version="1.1" xmlns="http://www.w3.org/2000/svg" xmlns:xlink="http://www.w3.org/1999/xlink" xml:space="preserve" xmlns:serif="http://www.serif.com/" style="fill-rule:evenodd;clip-rule:evenodd;stroke-linejoin:round;stroke-miterlimit:2;">
    <g transform="matrix(-4.15256,0,0,4.17207,1399.45,-667.99)">
        <path d="M292.198,160.11L292.256,196.391L263.112,196.391C232.079,196.391 207.384,215.341 207.384,238.717C207.384,262.096 225.23,281.251 255.665,276.209C270.267,273.791 274.456,262.906 274.513,251.488C274.513,240.681 264.465,231.644 251.937,231.644C241.917,231.644 233.792,238.652 233.792,247.3C233.792,254.217 240.292,259.826 248.309,259.826C261.636,259.826 260.259,250.017 260.259,249.86C260.259,253.503 253.877,256.1 249.497,256.1C244.022,256.1 239.585,252.411 239.585,247.858C239.585,242.168 245.132,237.556 251.975,237.556C260.529,237.556 267.463,243.321 267.463,250.435C267.463,259.326 258.795,266.534 248.103,266.534C234.739,266.534 223.903,257.524 223.903,246.41C223.903,232.518 237.249,220.767 253.956,220.767C274.837,220.767 291.965,235.332 291.965,252.698L292.022,278.627L292.256,317.327L253.662,317.327C233.474,317.327 214.813,314.247 202.145,303.593C185.007,289.18 177.307,263.632 177.307,238.647C177.307,195.453 205.634,160.526 252.625,160.11L161.213,160.11L161.213,335.083L337.008,335.083L337.008,160.11L292.198,160.11Z" style="fill:white;"/>
    </g>
</svg>
